<svg width="100" height="100" viewBox="0 0 100 100" fill="none" xmlns="http://www.w3.org/2000/svg">
<circle cx="50" cy="50" r="50" fill="white" fill-opacity="0.35"/>
<circle cx="50" cy="50" r="41.5" stroke="white" stroke-width="3"/>
<path d="M48.5 64C48.5 64.8284 49.1716 65.5 50 65.5C50.8284 65.5 51.5 64.8284 51.5 64L48.5 64ZM51.0607 33.9393C50.4749 33.3536 49.5251 33.3536 48.9393 33.9393L39.3934 43.4853C38.8076 44.0711 38.8076 45.0208 39.3934 45.6066C39.9792 46.1924 40.9289 46.1924 41.5147 45.6066L50 37.1213L58.4853 45.6066C59.0711 46.1924 60.0208 46.1924 60.6066 45.6066C61.1924 45.0208 61.1924 44.0711 60.6066 43.4853L51.0607 33.9393ZM51.5 64L51.5 35L48.5 35L48.5 64L51.5 64Z" fill="white"/>
</svg>
